<svg width="500" height="300" viewBox="0 0 500 300" fill="none" xmlns="http://www.w3.org/2000/svg">
<rect width="500" height="300" fill="#FEFEFE"/>
<line x1="240" y1="124" x2="240" y2="176" stroke="#8C8C8C" stroke-opacity="0.8" stroke-width="2" stroke-linecap="round"/>
<g clip-path="url(#clip0_648_26)">
<path d="M83.5139 142.484V147.718H96.1144C95.7798 150.614 94.7763 152.841 93.2152 154.289C91.431 156.07 88.5318 158.075 83.5139 158.075C75.8199 158.075 69.7984 151.839 69.7984 144.155C69.7984 136.47 75.7084 130.234 83.5139 130.234C87.6397 130.234 90.762 131.905 92.9921 134.02L96.6719 130.345C93.5497 127.339 89.3124 125 83.5139 125C72.9207 125 64 133.575 64 144.155C64 154.734 72.9207 163.309 83.5139 163.309C89.2009 163.309 93.5497 161.416 96.8949 157.964C100.352 154.511 101.467 149.611 101.467 145.714C101.467 144.489 101.355 143.375 101.244 142.484H83.5139Z" fill="#4285F4"/>
<path d="M117.078 138.141C110.276 138.141 104.589 143.375 104.589 150.502C104.589 157.63 110.165 162.864 117.078 162.864C123.992 162.864 129.567 157.741 129.567 150.614C129.567 143.375 123.992 138.141 117.078 138.141ZM117.078 158.075C113.287 158.075 110.053 154.957 110.053 150.614C110.053 146.159 113.287 143.152 117.078 143.152C120.869 143.152 124.103 146.159 124.103 150.614C124.103 154.957 120.869 158.075 117.078 158.075Z" fill="#EA4335"/>
<path d="M178.073 140.925H177.85C176.623 139.477 174.282 138.141 171.271 138.141C165.026 138.141 159.674 143.486 159.674 150.502C159.674 157.407 165.026 162.864 171.271 162.864C174.282 162.864 176.623 161.527 177.85 160.08H178.073V161.861C178.073 166.539 175.508 169.1 171.494 169.1C168.149 169.1 166.142 166.761 165.249 164.645L160.566 166.65C161.904 169.88 165.584 174 171.605 174C177.961 174 183.425 170.214 183.425 161.082V138.809H178.296V140.925H178.073ZM171.828 158.075C168.037 158.075 165.249 154.845 165.249 150.614C165.249 146.27 168.149 143.152 171.828 143.152C175.508 143.152 178.407 146.382 178.407 150.725C178.519 154.957 175.62 158.075 171.828 158.075Z" fill="#4285F4"/>
<path d="M144.843 138.141C138.041 138.141 132.354 143.375 132.354 150.502C132.354 157.63 137.93 162.864 144.843 162.864C151.757 162.864 157.332 157.741 157.332 150.614C157.332 143.375 151.757 138.141 144.843 138.141ZM144.843 158.075C141.052 158.075 137.818 154.957 137.818 150.614C137.818 146.159 141.052 143.152 144.843 143.152C148.635 143.152 151.868 146.159 151.868 150.614C151.868 154.957 148.635 158.075 144.843 158.075Z" fill="#FBBC05"/>
<path d="M187.551 125.557H192.903V162.975H187.551V125.557Z" fill="#34A853"/>
<path d="M209.407 158.075C206.619 158.075 204.723 156.85 203.385 154.289L220 147.495L219.443 146.048C218.439 143.264 215.205 138.141 208.849 138.141C202.493 138.141 197.141 143.152 197.141 150.502C197.141 157.407 202.382 162.864 209.407 162.864C215.094 162.864 218.327 159.411 219.777 157.407L215.54 154.623C214.09 156.739 212.194 158.075 209.407 158.075ZM209.072 142.818C211.302 142.818 213.198 143.932 213.756 145.491L202.605 150.168C202.493 145.045 206.285 142.818 209.072 142.818Z" fill="#EA4335"/>
</g>
<path d="M282.477 149.534C282.477 142.695 288.09 137.165 295.107 137.165C302.174 137.165 307.788 142.698 307.788 149.534C307.788 156.322 302.174 161.954 295.107 161.954C288.09 161.954 282.477 156.315 282.477 149.534ZM301.723 149.534C301.723 146.115 298.766 143.098 295.107 143.098C291.499 143.098 288.542 146.115 288.542 149.534C288.542 153.003 291.499 156.02 295.107 156.02C298.772 156.02 301.723 153.003 301.723 149.534Z" fill="#0056D2"/>
<path d="M409.84 149.735C409.84 142.243 415.904 137.165 421.419 137.165C425.177 137.165 427.333 138.32 428.786 140.534L429.363 137.613H435V161.5H429.363L428.635 159.041C426.982 160.851 424.926 161.961 421.419 161.961C416.005 161.954 409.84 157.176 409.84 149.735ZM429.086 149.684C429.079 147.931 428.379 146.253 427.138 145.018C425.898 143.783 424.219 143.093 422.472 143.1C420.725 143.107 419.052 143.81 417.821 145.054C416.59 146.298 415.902 147.982 415.909 149.735C415.909 153.054 418.866 156.02 422.476 156.02C426.13 156.02 429.086 153.054 429.086 149.684Z" fill="#0056D2"/>
<path d="M402.913 140.382V137.615H396.749V161.5H402.913V148.63C402.913 144.758 404.819 142.747 408.122 142.747C408.341 142.747 408.55 142.763 408.753 142.783L409.896 137.017C406.683 137.034 404.354 138.139 402.913 140.382Z" fill="#0056D2"/>
<path d="M340.97 140.383V137.616L334.806 137.63L334.858 161.512L341.022 161.498L340.989 148.63C340.979 144.759 342.881 142.744 346.187 142.736C346.398 142.737 346.609 142.749 346.819 142.772L347.956 137C344.738 137.026 342.406 138.136 340.97 140.383Z" fill="#0056D2"/>
<path d="M309.923 152.248V137.616H316.086V151.495C316.086 154.561 317.79 156.372 320.747 156.372C324.055 156.372 325.956 154.36 325.956 150.488V137.616H332.122V161.5H325.961V158.733C324.508 160.996 322.152 162.102 318.894 162.102C313.382 162.104 309.923 158.081 309.923 152.248Z" fill="#0056D2"/>
<path d="M369.946 149.561C369.96 142.873 374.731 137.151 382.298 137.165C389.316 137.178 394.266 142.818 394.25 149.461C394.251 150.118 394.2 150.774 394.096 151.423L375.954 151.389C376.649 154.256 379.001 156.322 382.56 156.329C384.715 156.329 387.022 155.533 388.429 153.725L392.633 157.107C390.471 160.171 386.658 161.974 382.6 161.966C375.437 161.941 369.934 156.551 369.946 149.561ZM388.044 147.08C387.698 144.667 385.196 142.801 382.239 142.797C379.381 142.797 377.074 144.497 376.167 147.059L388.044 147.08Z" fill="#0056D2"/>
<path d="M347.992 156.294L353.472 153.416C354.377 155.385 356.188 156.546 358.755 156.546C361.119 156.546 362.024 155.79 362.024 154.729C362.024 150.886 349.045 153.215 349.045 144.43C349.045 139.585 353.271 137.012 358.502 137.012C362.476 137.012 365.997 138.778 367.91 142.059L362.479 144.941C361.675 143.325 360.166 142.417 358.254 142.417C356.394 142.417 355.486 143.073 355.486 144.183C355.486 147.918 368.466 145.546 368.466 154.481C368.466 159.125 364.693 161.95 358.606 161.95C353.424 161.946 349.802 160.23 347.992 156.294Z" fill="#0056D2"/>
<path d="M258 149.533C258 142.646 263.612 137.114 270.63 137.114C272.74 137.099 274.82 137.611 276.684 138.604C278.547 139.597 280.135 141.039 281.305 142.801L276.043 145.863C275.434 144.99 274.624 144.278 273.681 143.788C272.739 143.297 271.692 143.043 270.63 143.047C267.022 143.047 264.064 146.064 264.064 149.533C264.064 153.003 267.022 156.02 270.63 156.02C271.742 156.027 272.837 155.749 273.811 155.21C274.785 154.672 275.605 153.893 276.193 152.946L281.403 156.063C280.248 157.877 278.654 159.367 276.77 160.396C274.885 161.425 272.772 161.959 270.627 161.947C263.612 161.953 258 156.315 258 149.533Z" fill="#0056D2"/>
<defs>
<clipPath id="clip0_648_26">
<rect width="156" height="49" fill="white" transform="translate(64 125)"/>
</clipPath>
</defs>
</svg>
